<svg xmlns="http://www.w3.org/2000/svg" xmlns:xlink="http://www.w3.org/1999/xlink" width="24" height="24" viewBox="0 0 24 24"><defs><path id="xqpba" d="M450 18928c0 6.62-5.38 12-12 12-6.61 0-12-5.38-12-12 0-6.61 5.38-12 12-12 6.61 0 12 5.38 12 12zm-2.24 1.08h-1.03a1.08 1.08 0 1 1 0-2.17h1.03a9.77 9.77 0 0 0-2.1-5.03l-.72.72a1.09 1.09 0 1 1-1.54-1.54l.72-.73a9.77 9.77 0 0 0-5.03-2.09v1.03a1.09 1.09 0 1 1-2.18 0v-1.03c-1.9.21-3.62.96-5.03 2.1l.72.72a1.09 1.09 0 1 1-1.54 1.54l-.73-.72a9.77 9.77 0 0 0-2.09 5.03h1.03a1.1 1.1 0 1 1 0 2.18h-1.03c.21 1.9.96 3.62 2.1 5.03l.72-.72a1.09 1.09 0 1 1 1.54 1.54l-.72.73a9.78 9.78 0 0 0 5.03 2.09v-1.03a1.1 1.1 0 0 1 2.18 0v1.03a9.78 9.78 0 0 0 5.03-2.1l-.72-.72a1.09 1.09 0 1 1 1.54-1.54l.73.72a9.8 9.8 0 0 0 2.09-5.04zm-6.8 1.87a1.1 1.1 0 0 1-1.55 0l-2.18-2.18c-.2-.2-.32-.48-.32-.77v-4.36a1.1 1.1 0 1 1 2.18 0v3.9l1.86 1.87a1.1 1.1 0 0 1 0 1.54z"/></defs><g><g transform="translate(-426 -18916)"><use fill="#4574d1" xlink:href="#xqpba"/></g></g></svg>