<svg xmlns="http://www.w3.org/2000/svg" xmlns:xlink="http://www.w3.org/1999/xlink" width="98" height="99" viewBox="0 0 98 99"><defs><path id="kneoa" d="M1244.61 3537.87a3.95 3.95 0 0 1-2.86 4.79c-.96.24-1.93.45-2.9.64a3.9 3.9 0 0 1-4.58-3.17 3.96 3.96 0 0 1 3.15-4.6c.81-.16 1.63-.34 2.44-.54 2.1-.53 4.23.76 4.75 2.88zm23.4-58.22a3.96 3.96 0 0 1 2.19-5.14c2.01-.8 4.3.18 5.1 2.2.37.93.71 1.88 1.02 2.82a3.96 3.96 0 0 1-2.5 5 3.9 3.9 0 0 1-4.95-2.52c-.26-.79-.55-1.58-.86-2.36zm-9.97 50.81c1.2 1.83.7 4.28-1.1 5.48-.83.55-1.68 1.08-2.54 1.58a3.9 3.9 0 0 1-5.36-1.45 3.97 3.97 0 0 1 1.44-5.4c.72-.42 1.43-.86 2.13-1.32a3.9 3.9 0 0 1 5.43 1.11zm20.74-34.4a3.93 3.93 0 0 1-6.17 3.14 3.95 3.95 0 0 1-1.67-3.32c.02-.83.01-1.68-.02-2.51a3.94 3.94 0 0 1 3.76-4.1 3.93 3.93 0 0 1 4.08 3.78c.04 1 .05 2 .02 3zm-9.77 28.42c-.6.8-1.22 1.6-1.86 2.35a3.9 3.9 0 0 1-5.53.45 3.98 3.98 0 0 1-.44-5.57c.53-.64 1.06-1.3 1.56-1.97a3.9 3.9 0 0 1 5.5-.79 3.97 3.97 0 0 1 .77 5.53zm7.56-14.86c-.3.94-.63 1.9-.98 2.83a3.91 3.91 0 0 1-5.93 1.82 3.97 3.97 0 0 1-1.4-4.64c.3-.78.57-1.58.82-2.38a3.92 3.92 0 1 1 7.49 2.37zm-50.66 30.53a3.93 3.93 0 0 1-4.56 3.19 48.2 48.2 0 0 1-19.45-8.2 49.66 49.66 0 0 1-6.25-5.26l-.02-.02-.05-.05a48.9 48.9 0 0 1-14.07-29.44c-.01-.07-.03-.13-.03-.2-.1-.98-.19-1.98-.23-2.98v-.1a48.98 48.98 0 0 1 7.73-28.74l.11-.19a48.37 48.37 0 0 1 1.7-2.46c.05-.07.1-.14.17-.2a48.37 48.37 0 0 1 26.82-18.12l.14-.04h.03a48.16 48.16 0 0 1 39.22 6.8l3.07-4.47c.85-1.24 1.88-1.07 2.28.39l3.57 12.97a2.2 2.2 0 0 1-1.98 2.9l-13.32 1.2c-1.49.13-2.01-.77-1.16-2.01l3.07-4.47a40.76 40.76 0 0 0-45.97.38l-.14.1a40.88 40.88 0 0 0-10.06 10.08c-13 18.59-8.57 44.37 9.89 57.47 1.27.9 2.57 1.71 3.9 2.45h.01c.73.4 1.48.79 2.23 1.15l.12.06c3.19 1.5 6.55 2.59 10.06 3.22a3.95 3.95 0 0 1 3.17 4.59zm4.85-73.92v27.96l25.5 13.28a3.2 3.2 0 0 1-1.47 6.03c-.49 0-.99-.11-1.45-.35l-28.93-15.07v-31.85c0-1.77 1.43-3.2 3.18-3.2a3.19 3.19 0 0 1 3.17 3.2z"/></defs><g><g transform="translate(-1181 -3445)"><use fill="#f59203" xlink:href="#kneoa"/></g></g></svg>