<svg xmlns="http://www.w3.org/2000/svg" xmlns:xlink="http://www.w3.org/1999/xlink" width="23" height="16" viewBox="0 0 23 16"><defs><path id="xck5a" d="M426.77 18867.5l9.58 5.55c.32.2.73.28 1.15.28.42 0 .84-.09 1.16-.28l9.58-5.55c.63-.36 1.22-1.5.07-1.5H426.7c-1.15 0-.56 1.14.07 1.5zm21.74 2.76l-9.85 5.55c-.43.25-.74.28-1.16.28-.42 0-.72-.03-1.15-.28l-9.85-5.55c-.5-.28-.5.05-.5.3v10.12c0 .58.72 1.32 1.27 1.32h20.46c.56 0 1.27-.74 1.27-1.32v-10.12c0-.25 0-.58-.5-.3z"/></defs><g><g transform="translate(-426 -18866)"><use fill="#4574d1" xlink:href="#xck5a"/></g></g></svg>