<svg xmlns="http://www.w3.org/2000/svg" xmlns:xlink="http://www.w3.org/1999/xlink" width="17" height="24" viewBox="0 0 17 24"><defs><path id="2wira" d="M444.05 18808.12c0 5.78-7.65 14.27-7.98 14.62a.78.78 0 0 1-1.14 0c-.33-.35-7.98-8.84-7.98-14.62a8.51 8.51 0 0 1 8.55-8.45c4.71 0 8.55 3.79 8.55 8.45zm-4.25 0a4.28 4.28 0 0 0-4.3-4.25c-2.37 0-4.3 1.9-4.3 4.25a4.28 4.28 0 0 0 4.3 4.25c2.37 0 4.3-1.91 4.3-4.25z"/></defs><g><g transform="translate(-427 -18799)"><use fill="#4574d1" xlink:href="#2wira"/></g></g></svg>