<svg xmlns="http://www.w3.org/2000/svg" xmlns:xlink="http://www.w3.org/1999/xlink" width="85" height="109" viewBox="0 0 85 109"><defs><path id="kat9a" d="M1212.38 2676a54.44 54.44 0 0 1-54.38-54.5c0-30.1 24.35-54.5 54.38-54.5"/><path id="kat9b" d="M1211.13 2588.93c17.6 0 31.87 14.3 31.87 31.94a31.91 31.91 0 0 1-31.87 31.95 31.91 31.91 0 0 1-31.88-31.95 31.91 31.91 0 0 1 31.88-31.94z"/><path id="kat9c" d="M1221.98 2617.74c0 3.52-1.97 6.88-3.8 9.77a41.23 41.23 0 0 1-6.03 7.43c-.58.58-1.51.58-2.07 0a44.79 44.79 0 0 1-6.73-8.8c-1.54-2.55-3.1-5.33-3.1-8.4 0-5.9 4.85-10.66 10.85-10.66s10.86 4.8 10.88 10.66zm-4.29-.29c0-3.59-2.95-6.46-6.59-6.46a6.53 6.53 0 0 0-6.58 6.46 6.53 6.53 0 0 0 6.58 6.47 6.52 6.52 0 0 0 6.59-6.47z"/><clipPath id="kat9d"><use fill="#fff" xlink:href="#kat9a"/></clipPath></defs><g><g transform="translate(-1158 -2567)"><use fill="#ff8314" xlink:href="#kat9b"/></g><g transform="translate(-1158 -2567)"><use fill="#fff" xlink:href="#kat9c"/></g><g transform="translate(-1158 -2567)"><use fill="#fff" fill-opacity="0" stroke="#3080dd" stroke-miterlimit="50" stroke-width="8" clip-path="url(&quot;#kat9d&quot;)" xlink:href="#kat9a"/></g></g></svg>