<svg xmlns="http://www.w3.org/2000/svg" xmlns:xlink="http://www.w3.org/1999/xlink" width="120" height="154" viewBox="0 0 120 154"><defs><path id="lbh1a" d="M479.77 10169c-42.4 0-76.77-34.48-76.77-77s34.37-77 76.77-77"/><path id="lbh1b" d="M478 10045.98c24.85 0 45 20.2 45 45.13a45.07 45.07 0 0 1-45 45.14c-24.85 0-45-20.2-45-45.14a45.07 45.07 0 0 1 45-45.13z"/><path id="lbh1c" d="M493.33 10086.69c0 4.97-2.79 9.71-5.37 13.8a58.23 58.23 0 0 1-8.51 10.5c-.83.81-2.13.81-2.93 0a63.29 63.29 0 0 1-9.5-12.42c-2.17-3.62-4.38-7.55-4.38-11.88 0-8.32 6.86-15.06 15.33-15.06 8.47 0 15.33 6.77 15.36 15.06zm-6.06-.4a9.2 9.2 0 0 0-9.3-9.14c-5.13 0-9.3 4.1-9.3 9.13a9.22 9.22 0 0 0 9.3 9.14 9.2 9.2 0 0 0 9.3-9.14z"/><clipPath id="lbh1d"><use fill="#fff" xlink:href="#lbh1a"/></clipPath></defs><g><g transform="translate(-403 -10015)"><use fill="#ff8227" xlink:href="#lbh1b"/></g><g transform="translate(-403 -10015)"><use fill="#fff" xlink:href="#lbh1c"/></g><g transform="translate(-403 -10015)"><use fill="#fff" fill-opacity="0" stroke="#527fd9" stroke-miterlimit="50" stroke-width="24" clip-path="url(&quot;#lbh1d&quot;)" xlink:href="#lbh1a"/></g></g></svg>