<svg xmlns="http://www.w3.org/2000/svg" xmlns:xlink="http://www.w3.org/1999/xlink" width="66" height="66" viewBox="0 0 66 66"><defs><path id="7aeaa" d="M1652 3780a33 33 0 1 1 0 66 33 33 0 0 1 0-66z"/><path id="7aeab" d="M1656.24 3806.28a1 1 0 0 0-1.37 0 .88.88 0 0 0 0 1.28l4.84 4.53h-17.75c-.54 0-.96.4-.96.9s.42.92.96.92h17.75l-4.84 4.53a.89.89 0 0 0 0 1.29 1 1 0 0 0 1.37 0l6.47-6.09a.85.85 0 0 0 0-1.27z"/></defs><g><g transform="translate(-1619 -3780)"><use fill="#3a66bc" xlink:href="#7aeaa"/></g><g transform="translate(-1619 -3780)"><use fill="#fff" xlink:href="#7aeab"/></g></g></svg>