<svg xmlns="http://www.w3.org/2000/svg" xmlns:xlink="http://www.w3.org/1999/xlink" width="19" height="18" viewBox="0 0 19 18"><defs><path id="veqfa" d="M444.5 18763l-2.67-2.47c-.94-.89-2.56-.53-2.94.62-.28.8-1.23 1.24-2.09 1.06-1.9-.44-4.46-2.74-4.93-4.6-.29-.8.28-1.68 1.14-1.95a1.6 1.6 0 0 0 .66-2.74l-2.66-2.48c-.76-.62-1.9-.62-2.56 0l-1.8 1.68c-1.8 1.77.19 6.46 4.65 10.62 4.46 4.16 9.5 6.1 11.39 4.34l1.8-1.68c.67-.71.67-1.78 0-2.4z"/></defs><g><g transform="translate(-426 -18750)"><use fill="#4574d1" xlink:href="#veqfa"/></g></g></svg>