<svg xmlns="http://www.w3.org/2000/svg" xmlns:xlink="http://www.w3.org/1999/xlink" width="128" height="130" viewBox="0 0 128 130"><defs><path id="lljza" d="M1687 48a33 33 0 1 1 0 66 33 33 0 0 1 0-66z"/><path id="lljzd" d="M1694.6 84.01l-2.1-2.1c-.74-.74-2.02-.44-2.32.53a1.43 1.43 0 0 1-1.65.9c-1.5-.37-3.52-2.32-3.9-3.89-.22-.67.23-1.42.9-1.64.98-.3 1.28-1.57.53-2.32l-2.1-2.1c-.6-.51-1.5-.51-2.03 0l-1.42 1.43c-1.43 1.5.15 5.45 3.67 8.97 3.53 3.5 7.5 5.15 9 3.66l1.43-1.42c.52-.6.52-1.5 0-2.02z"/><mask id="lljzc" width="2" height="2" x="-1" y="-1"><path fill="#fff" d="M1654 48h66v66h-66z"/><use xlink:href="#lljza"/></mask><filter id="lljzb" width="166" height="166" x="1604" y="-2" filterUnits="userSpaceOnUse"><feOffset in="SourceGraphic" result="FeOffset1023Out"/><feGaussianBlur in="FeOffset1023Out" result="FeGaussianBlur1024Out" stdDeviation="16 16"/></filter></defs><g><g transform="translate(-1624 -16)"><g filter="url(#lljzb)"><use fill="none" stroke-opacity=".22" stroke-width="0" mask="url(&quot;#lljzc&quot;)" xlink:href="#lljza"/><use fill="#5b667b" fill-opacity=".22" xlink:href="#lljza"/></g><use fill="#fff" xlink:href="#lljza"/></g><g transform="translate(-1624 -16)"><use fill="#de9123" xlink:href="#lljzd"/></g></g></svg>