<svg xmlns="http://www.w3.org/2000/svg" xmlns:xlink="http://www.w3.org/1999/xlink" width="20" height="20" viewBox="0 0 20 20"><defs><path id="alyra" d="M1430.6 9230.55a7.65 7.65 0 0 1-.58-3.32c.07-.79.4-1.47.96-2.04l1.55-1.55c.44-.42.95-.64 1.48-.64s1.03.22 1.46.64c.28.26.57.55.84.83l.43.43 1.23 1.24c.46.45.7.96.7 1.49s-.25 1.04-.7 1.5l-.38.38c-.35.36-.72.73-1.1 1.08.27.64.67 1.27 1.26 2.02a15.72 15.72 0 0 0 3.76 3.42l.46.24.41.22 1.49-1.48c.43-.44.94-.67 1.48-.67.53 0 1.03.23 1.46.67l2.5 2.5c.89.88.89 2.05 0 2.97l-.58.58c-.29.28-.56.54-.8.83l-.02.02a3.28 3.28 0 0 1-2.54 1.09h-.29c-1.54-.1-2.92-.69-3.95-1.18a21.25 21.25 0 0 1-7.08-5.53 19.25 19.25 0 0 1-3.45-5.74zm.96-.34a18.46 18.46 0 0 0 3.28 5.45 20.19 20.19 0 0 0 6.73 5.26 10.01 10.01 0 0 0 3.8 1.08c.74 0 1.3-.24 1.78-.76.28-.32.58-.61.87-.9.2-.18.38-.36.55-.55.5-.52.51-1.06.02-1.56l-2.5-2.5a1.04 1.04 0 0 0-.74-.36c-.26 0-.52.13-.76.37l-1.56 1.55a.89.89 0 0 1-.62.28.87.87 0 0 1-.4-.1l-.05-.03c-.13-.09-.29-.17-.45-.25-.18-.1-.37-.18-.55-.3a16.63 16.63 0 0 1-4-3.64 9.78 9.78 0 0 1-1.46-2.36l-.01-.04c-.09-.25-.14-.57.2-.92.01 0 .02 0 .02-.02.4-.35.76-.72 1.15-1.1l.39-.4c.25-.25.39-.51.39-.77s-.14-.52-.4-.78l-1.23-1.23-.43-.44c-.29-.29-.55-.56-.82-.81-.24-.24-.5-.36-.75-.36-.26 0-.53.12-.77.35l-1.54 1.54c-.4.4-.61.86-.66 1.4-.07.84.1 1.76.52 2.9z"/></defs><g><g transform="translate(-1430 -9223)"><use fill="#4574d1" xlink:href="#alyra"/></g></g></svg>