<svg xmlns="http://www.w3.org/2000/svg" xmlns:xlink="http://www.w3.org/1999/xlink" width="118" height="118" viewBox="0 0 118 118"><defs><path id="gnxfa" d="M655 3201a59 59 0 1 1 0 117.99 59 59 0 0 1 0-117.99z"/><path id="gnxfb" d="M655.5 3219a40.5 40.5 0 1 1 0 81 40.5 40.5 0 0 1 0-81z"/><path id="gnxfc" d="M681 3260.5a25.5 25.5 0 1 1-51 0 25.5 25.5 0 0 1 51 0zm-9.83-6.02c-.17-2.12-1.44-4.8-4.04-4.89-7.26-.49-15.86-.62-23.25 0-2.3.25-3.87 3.05-4.04 5.17-.37 4.46-.37 7 0 11.45.17 2.12 1.7 4.93 4.04 5.22 7.47.5 16.03.56 23.25 0 2.25-.39 3.87-3.1 4.04-5.22.35-4.46.35-7.27 0-11.73zm-18.86-.35l9.57 6.37-9.57 6.38z"/></defs><g><g opacity=".3" transform="translate(-596 -3201)"><use xlink:href="#gnxfa"/></g><g transform="translate(-596 -3201)"><use fill="#fff" xlink:href="#gnxfb"/></g><g transform="translate(-596 -3201)"><use fill="#3a66bc" xlink:href="#gnxfc"/></g></g></svg>