<svg xmlns="http://www.w3.org/2000/svg" xmlns:xlink="http://www.w3.org/1999/xlink" width="201" height="215" viewBox="0 0 201 215"><defs><path id="van0a" d="M907 641a59 59 0 1 1 0 118 59 59 0 0 1 0-118z"/><path id="van0b" d="M907 787a87 87 0 1 1 0-174"/><path id="van0g" d="M907 666a34 34 0 1 1 0 68 34 34 0 0 1 0-68z"/><path id="van0h" d="M925.05 700.42a18.47 18.47 0 1 1-36.94 0 18.47 18.47 0 0 1 36.94 0zm-7.12-4.36c-.13-1.54-1.04-3.47-2.93-3.54a117.4 117.4 0 0 0-16.84 0c-1.66.18-2.8 2.2-2.92 3.74a43.76 43.76 0 0 0 0 8.3c.12 1.53 1.23 3.57 2.92 3.78 5.42.35 11.62.4 16.84 0 1.64-.29 2.8-2.25 2.93-3.79a46.5 46.5 0 0 0 0-8.49zm-13.66-.26l6.93 4.62-6.93 4.62z"/><mask id="van0d" width="2" height="2" x="-1" y="-1"><path fill="#fff" d="M848 641h118v118H848z"/><use xlink:href="#van0a"/></mask><filter id="van0c" width="230" height="230" x="792" y="585" filterUnits="userSpaceOnUse"><feOffset in="SourceGraphic" result="FeOffset1098Out"/><feGaussianBlur in="FeOffset1098Out" result="FeGaussianBlur1099Out" stdDeviation="18.4 18.4"/></filter><filter id="van0e" width="161" height="248" x="783" y="576" filterUnits="userSpaceOnUse"><feOffset in="SourceGraphic" result="FeOffset1113Out"/><feGaussianBlur in="FeOffset1113Out" result="FeGaussianBlur1114Out" stdDeviation="10.8 10.8"/></filter><clipPath id="van0f"><use fill="#fff" xlink:href="#van0b"/></clipPath></defs><g><g transform="translate(-801 -593)"><g filter="url(#van0c)"><use fill="none" stroke-opacity=".17" stroke-width="0" mask="url(&quot;#van0d&quot;)" xlink:href="#van0a"/><use fill="#3a66bc" fill-opacity=".17" xlink:href="#van0a"/></g><use fill="#fff" xlink:href="#van0a"/></g><g transform="translate(-801 -593)"><g filter="url(#van0e)"><use fill="none" stroke="#3a66bc" stroke-opacity=".11" stroke-width="12" xlink:href="#van0b"/></g><use fill="#fff" fill-opacity="0" stroke="#fff" stroke-miterlimit="50" stroke-width="24" clip-path="url(&quot;#van0f&quot;)" xlink:href="#van0b"/></g><g transform="translate(-801 -593)"><use fill="#4574d1" xlink:href="#van0g"/></g><g transform="translate(-801 -593)"><use fill="#fff" xlink:href="#van0h"/></g></g></svg>