<svg xmlns="http://www.w3.org/2000/svg" xmlns:xlink="http://www.w3.org/1999/xlink" width="66" height="66" viewBox="0 0 66 66"><defs><path id="kfspa" d="M461 4441a33 33 0 1 0 0 66 33 33 0 0 0 0-66z"/><path id="kfspc" d="M456.76 4467.28a1 1 0 0 1 1.37 0c.37.35.37.93 0 1.27l-4.84 4.54h17.75c.54 0 .96.4.96.9 0 .51-.42.92-.96.92H453.3l4.84 4.53c.37.36.37.94 0 1.29a1 1 0 0 1-1.37 0l-6.47-6.09a.85.85 0 0 1 0-1.27z"/><clipPath id="kfspb"><use fill="#fff" xlink:href="#kfspa"/></clipPath></defs><g><g transform="translate(-428 -4441)"><use fill="#fff" fill-opacity="0" stroke="#4770c0" stroke-miterlimit="50" stroke-width="4" clip-path="url(&quot;#kfspb&quot;)" xlink:href="#kfspa"/></g><g transform="translate(-428 -4441)"><use fill="#ff8227" xlink:href="#kfspc"/></g></g></svg>