<svg xmlns="http://www.w3.org/2000/svg" xmlns:xlink="http://www.w3.org/1999/xlink" width="31" height="23" viewBox="0 0 31 23"><defs><path id="jtxoa" d="M1085.98 3069.04c-5.34 1.98-8.3 3.97-8.3 7.13 0 1.05.11 1.98.35 2.34 3.56.58 6.17 2.92 6.17 6.9 0 3.03-2.73 5.6-5.81 5.6-3.8 0-6.77-2.57-6.77-7.83 0-8.3 6.17-12.74 14-15.2zm-16.61 0c-5.35 1.98-8.31 3.97-8.31 7.13 0 1.05.11 1.98.35 2.34 3.56.58 6.17 2.92 6.17 6.9 0 3.03-2.73 5.6-5.81 5.6-3.8 0-6.77-2.57-6.77-7.83 0-8.3 6.17-12.74 14-15.2z"/></defs><g><g transform="translate(-1055 -3068)"><use fill="#ff8227" xlink:href="#jtxoa"/></g></g></svg>