<svg xmlns="http://www.w3.org/2000/svg" xmlns:xlink="http://www.w3.org/1999/xlink" width="119" height="120" viewBox="0 0 119 120"><defs><path id="qelwa" d="M83 663a32 32 0 1 1 0 64 32 32 0 0 1 0-64z"/><path id="qelwd" d="M92 691.49v6.87c0 4.2-3.56 7.64-7.91 7.64h-.56c-4.35 0-7.92-3.44-7.92-7.64v-6.87a7.7 7.7 0 0 1 5.92-7.37c-.11.35-.18.71-.18 1.1v5.16c0 1.63 1.1 2.96 2.46 2.96 1.35 0 2.46-1.33 2.46-2.96v-5.16c0-.39-.07-.75-.18-1.1A7.7 7.7 0 0 1 92 691.5zm-8.2-6.06c.69 0 1.24 1.06 1.24 2.37s-.55 2.38-1.23 2.38c-.68 0-1.23-1.07-1.23-2.38 0-1.3.55-2.37 1.23-2.37z"/><mask id="qelwc" width="2" height="2" x="-1" y="-1"><path fill="#fff" d="M51 663h64v64H51z"/><use xlink:href="#qelwa"/></mask><filter id="qelwb" width="164" height="164" x="1" y="613" filterUnits="userSpaceOnUse"><feOffset in="SourceGraphic" result="FeOffset1073Out"/><feGaussianBlur in="FeOffset1073Out" result="FeGaussianBlur1074Out" stdDeviation="16 16"/></filter></defs><g><g transform="translate(-24 -635)"><g filter="url(#qelwb)"><use fill="none" stroke-opacity=".11" stroke-width="0" mask="url(&quot;#qelwc&quot;)" xlink:href="#qelwa"/><use fill="#5b667b" fill-opacity=".11" xlink:href="#qelwa"/></g><use fill="#fff" xlink:href="#qelwa"/></g><g transform="translate(-24 -635)"><use fill="#de9123" xlink:href="#qelwd"/></g></g></svg>