<svg xmlns="http://www.w3.org/2000/svg" xmlns:xlink="http://www.w3.org/1999/xlink" width="61" height="61" viewBox="0 0 61 61"><defs><path id="rkvua" d="M555.63 5675.54a2.47 2.47 0 0 1-1.78 3c-.6.15-1.21.28-1.82.4a2.46 2.46 0 0 1-2.86-1.98 2.47 2.47 0 0 1 1.97-2.88c.5-.1 1.02-.21 1.52-.34a2.45 2.45 0 0 1 2.97 1.8zm14.63-36.38a2.45 2.45 0 1 1 4.55-1.83c.23.57.45 1.16.64 1.75.43 1.3-.27 2.7-1.56 3.12a2.44 2.44 0 0 1-3.1-1.56c-.16-.5-.34-1-.53-1.48zm-6.23 31.76a2.48 2.48 0 0 1-.7 3.42c-.51.34-1.04.67-1.58.98a2.44 2.44 0 0 1-3.35-.9 2.48 2.48 0 0 1 .9-3.38c.45-.26.9-.54 1.33-.82a2.44 2.44 0 0 1 3.4.7zm12.96-21.51a2.46 2.46 0 0 1-3.86 1.96 2.48 2.48 0 0 1-1.04-2.07c.01-.52 0-1.05-.02-1.57a2.46 2.46 0 0 1 2.36-2.57c1.35-.05 2.5 1.01 2.54 2.37.03.62.03 1.26.02 1.88zm-6.1 17.77c-.38.5-.77.99-1.17 1.46a2.44 2.44 0 0 1-3.46.28 2.48 2.48 0 0 1-.27-3.48c.33-.4.66-.81.97-1.23a2.44 2.44 0 0 1 3.43-.5c1.09.83 1.3 2.38.5 3.47zm4.71-9.3c-.18.6-.38 1.19-.6 1.77a2.45 2.45 0 0 1-3.71 1.14 2.48 2.48 0 0 1-.88-2.9c.19-.49.36-.98.52-1.48a2.45 2.45 0 1 1 4.67 1.48zm-31.66 19.09a2.45 2.45 0 0 1-2.84 2 30.13 30.13 0 0 1-16.07-8.42l-.01-.01-.03-.04a30.56 30.56 0 0 1-8.8-18.4l-.02-.11c-.06-.62-.11-1.25-.14-1.87v-.06a30.62 30.62 0 0 1 4.83-17.97l.07-.11a26.73 26.73 0 0 1 1.06-1.54l.1-.13a30.22 30.22 0 0 1 16.77-11.32l.1-.03a30.12 30.12 0 0 1 24.51 4.25l1.93-2.8c.53-.77 1.17-.66 1.42.25l2.24 8.11c.25.91-.3 1.72-1.24 1.8l-8.32.76c-.94.08-1.26-.48-.73-1.26l1.91-2.79a25.48 25.48 0 0 0-35.1 6.6 25.93 25.93 0 0 0 8.62 37.45c.46.26.93.5 1.4.72a25.18 25.18 0 0 0 6.36 2.05 2.47 2.47 0 0 1 1.98 2.87zm3.04-46.2v17.47l15.93 8.3a2 2 0 0 1-.91 3.77c-.31 0-.62-.07-.91-.22l-18.08-9.41v-19.91a2 2 0 0 1 1.98-2c1.1 0 1.99.9 1.99 2z"/></defs><g><g transform="translate(-516 -5618)"><use fill="#de9123" xlink:href="#rkvua"/></g></g></svg>