<svg xmlns="http://www.w3.org/2000/svg" xmlns:xlink="http://www.w3.org/1999/xlink" width="87" height="87" viewBox="0 0 87 87"><defs><path id="djbya" d="M1144.5 3888a43.5 43.5 0 1 1 0 87 43.5 43.5 0 0 1 0-87z"/><path id="djbyb" d="M1144 3898a33 33 0 1 1 0 66 33 33 0 0 1 0-66z"/><path id="djbyc" d="M1156.7 3943.7c-.41.4-1.07.4-1.48 0l-6.01-6.01a10.53 10.53 0 1 1 1.47-1.47l6.01 6c.41.4.41 1.07 0 1.47zm-5.72-14.16a8.46 8.46 0 0 0-16.89 0 8.45 8.45 0 0 0 16.89 0z"/></defs><g><g opacity=".13" transform="translate(-1101 -3888)"><use xlink:href="#djbya"/></g><g transform="translate(-1101 -3888)"><use fill="#fff" xlink:href="#djbyb"/></g><g transform="translate(-1101 -3888)"><use xlink:href="#djbyc"/></g></g></svg>